<?xml version="1.0" standalone="no"?>
<!DOCTYPE svg PUBLIC "-//W3C//DTD SVG 20010904//EN"
 "http://www.w3.org/TR/2001/REC-SVG-20010904/DTD/svg10.dtd">
<svg version="1.0" xmlns="http://www.w3.org/2000/svg"
 width="260.000000pt" height="260.000000pt" viewBox="0 0 260.000000 260.000000"
 preserveAspectRatio="xMidYMid meet">
<metadata>
Created by potrace 1.11, written by Peter Selinger 2001-2013
</metadata>
<g transform="translate(0.000000,260.000000) scale(0.100000,-0.100000)"
fill="#000000" stroke="none">
<path d="M1365 2520 c-103 -14 -367 -84 -465 -124 -380 -155 -665 -461 -739
-793 -13 -59 -20 -114 -17 -129 4 -14 -1 -66 -10 -116 -15 -78 -16 -101 -5
-175 20 -142 60 -294 90 -343 15 -25 33 -61 39 -80 7 -19 21 -43 31 -55 10
-11 31 -38 45 -60 37 -55 175 -194 239 -239 203 -145 372 -238 472 -261 33 -8
87 -24 120 -35 123 -42 548 -68 755 -45 215 23 522 124 596 196 41 40 50 65
31 87 -8 9 -24 35 -36 57 -12 22 -37 60 -56 85 -19 25 -52 67 -72 94 -65 84
-133 154 -162 166 -24 10 -43 7 -132 -23 -57 -20 -122 -43 -144 -54 -35 -16
-67 -18 -260 -18 l-220 0 -100 43 c-150 64 -226 123 -345 267 -94 114 -120
162 -120 217 0 70 65 363 88 396 11 15 31 50 45 77 50 98 166 190 310 246 129
51 247 64 457 50 132 -8 151 -12 213 -41 53 -25 76 -31 104 -27 41 7 101 59
136 119 24 40 58 93 124 193 53 80 70 133 53 164 -16 30 -120 78 -210 97 -41
8 -117 27 -169 41 -90 24 -112 26 -356 29 -143 1 -291 -2 -330 -6z"/>
</g>
</svg>
